<svg fill="#AB0000" xmlns:dc="http://purl.org/dc/elements/1.1/" xmlns:cc="http://creativecommons.org/ns#" xmlns:rdf="http://www.w3.org/1999/02/22-rdf-syntax-ns#" xmlns:svg="http://www.w3.org/2000/svg" xmlns="http://www.w3.org/2000/svg" xmlns:sodipodi="http://sodipodi.sourceforge.net/DTD/sodipodi-0.dtd" xmlns:inkscape="http://www.inkscape.org/namespaces/inkscape" viewBox="0 0 1150.9492 1151.219" version="1.1" x="0px" y="0px"><g transform="translate(3658.0204,1747.3666)"><path style="" d="m -3108.1708,-596.38814 c -20.4904,-1.26637 -41.6453,-3.33981 -56.875,-5.57444 -120.7717,-17.72056 -230.7568,-71.85866 -318.5583,-156.80442 -90.8856,-87.92946 -150.3919,-204.438 -168.8656,-330.625 -4.2575,-29.0813 -5.5507,-48.3023 -5.5507,-82.5 0,-34.1977 1.2932,-53.4187 5.5507,-82.5 17.6653,-120.6656 71.8545,-230.7581 156.7989,-318.5583 87.9295,-90.8856 204.438,-150.3919 330.625,-168.8656 29.0813,-4.2575 48.3023,-5.5507 82.5,-5.5507 34.1977,0 53.4187,1.2932 82.5,5.5507 126.187,18.4737 242.6955,77.98 330.625,168.8656 26.5871,27.4809 45.6005,51.0799 66.1988,82.1645 54.0043,81.4971 85.2182,170.4166 94.6107,269.5188 0.847,8.9375 1.5401,31.1562 1.5401,49.375 0,44.4968 -3.0696,75.1726 -11.7847,117.77 -14.7049,71.87479 -45.7252,144.69074 -88.1667,206.9599 -48.3423,70.92681 -114.3252,132.03273 -188.6482,174.70489 -70.9275,40.72264 -153.5258,66.75371 -235.625,74.25778 -15.4629,1.41336 -64.5864,2.57078 -76.875,1.81129 z m 77.8683,-139.79805 c 129.6921,-16.89332 241.2894,-85.75752 312.0851,-192.58081 38.8375,-58.60169 62.0616,-122.512 70.8603,-195 2.2079,-18.1894 2.2079,-75.5606 0,-93.75 -14.469,-119.2024 -71.0091,-221.8416 -162.6887,-295.3342 -63.2446,-50.6984 -140.8843,-82.6936 -225.625,-92.9796 -18.1894,-2.2078 -75.5606,-2.2078 -93.75,0 -84.7407,10.286 -162.3804,42.2812 -225.625,92.9796 -91.6796,73.4926 -148.2197,176.1318 -162.6887,295.3342 -2.2079,18.1894 -2.2079,75.5606 0,93.75 14.4671,119.1869 71.0527,221.91 162.6887,295.33839 63.3034,50.7253 146.1995,84.7807 225.625,92.69132 7.5625,0.75321 15.7188,1.59269 18.125,1.86549 10.3498,1.17343 66.5446,-0.43235 80.9933,-2.31439 z m -199.7433,-347.58081 0,-99.375 -56.3526,0 -56.3526,0 129.7901,-130.6228 129.7901,-130.6227 130.3151,130.3102 130.3152,130.3103 -56.2527,0.3252 -56.2526,0.3253 0,99.3622 0,99.3623 -45.625,0 -45.625,0 0,-63.75 0,-63.75 -55.625,0 -55.625,0 0,63.75 0,63.75 -46.25,0 -46.25,0 0,-99.375 z" fill="#AB0000"></path></g></svg>